<svg preserveAspectRatio="none" width="100%" height="100%" overflow="visible" style="display: block;" viewBox="0 0 35 35" fill="none" xmlns="http://www.w3.org/2000/svg">
<g id="Group 35">
<circle id="Ellipse 42" cx="17.5" cy="17.5" r="17" stroke="var(--stroke-0, white)"/>
<path id="Vector" d="M13.2021 23.1955L13.7819 23.5336C14.7505 24.0984 15.8513 24.4 17 24.4C20.5346 24.4 23.4 21.5346 23.4 18C23.4 14.4654 20.5346 11.6 17 11.6C13.4654 11.6 10.6 14.4654 10.6 18C10.6 19.149 10.9018 20.2502 11.4669 21.219L11.8048 21.7982L11.2821 23.7195L13.2021 23.1955ZM9.00334 26L10.0849 22.0252C9.39517 20.8429 9 19.4676 9 18C9 13.5817 12.5817 10 17 10C21.4182 10 25 13.5817 25 18C25 22.4182 21.4182 26 17 26C15.5329 26 14.158 25.6051 12.9759 24.9158L9.00334 26ZM14.1131 14.2467C14.2202 14.2391 14.3276 14.238 14.4349 14.2432C14.4782 14.2461 14.5213 14.2511 14.5645 14.2561C14.6919 14.2708 14.832 14.3484 14.8791 14.4552C15.1178 14.9963 15.3493 15.5405 15.5738 16.0877C15.6233 16.2085 15.5934 16.3651 15.4992 16.5166C15.4514 16.5942 15.3762 16.7032 15.2892 16.8146C15.1987 16.9304 15.004 17.1433 15.004 17.1433C15.004 17.1433 14.9251 17.2378 14.9549 17.3555C14.9664 17.4 15.0034 17.4648 15.0369 17.5193C15.0554 17.5494 15.0727 17.5764 15.0838 17.595C15.2886 17.9369 15.5638 18.2834 15.8999 18.6093C15.9962 18.7026 16.0897 18.7979 16.1902 18.8864C16.5648 19.2167 16.9886 19.4866 17.4464 19.6866L17.4505 19.6884C17.5181 19.7175 17.5528 19.7334 17.6518 19.7754C17.7017 19.7966 17.7527 19.8148 17.8051 19.8286C17.8241 19.8336 17.8435 19.8364 17.863 19.8378C17.9924 19.8455 18.0672 19.7626 18.0991 19.7244C18.6779 19.0232 18.7309 18.9774 18.7349 18.9778V18.979C18.811 18.8989 18.9306 18.871 19.0373 18.8776C19.086 18.8806 19.1345 18.8899 19.1788 18.9102C19.6042 19.1042 20.2998 19.407 20.2998 19.407L20.765 19.6161C20.843 19.6537 20.9141 19.7422 20.9175 19.8283C20.9196 19.8818 20.9254 19.9682 20.9062 20.1263C20.8812 20.3333 20.8182 20.5825 20.7557 20.713C20.7117 20.8046 20.6547 20.8859 20.5885 20.9547C20.4986 21.048 20.4319 21.1046 20.3239 21.1851C20.2582 21.2341 20.2241 21.2571 20.2241 21.2571C20.113 21.3272 20.0503 21.3622 19.9179 21.4327C19.712 21.5424 19.4845 21.6054 19.2514 21.6174C19.1029 21.625 18.9547 21.6358 18.8063 21.6278C18.7998 21.6274 18.3518 21.5586 18.3518 21.5586C17.2142 21.2594 16.1622 20.6989 15.2795 19.9216C15.099 19.7627 14.9316 19.5908 14.7608 19.4207C14.0495 18.7126 13.5111 17.9491 13.1846 17.2269C13.0236 16.8707 12.9216 16.4893 12.92 16.0968C12.917 15.6112 13.076 15.1386 13.3718 14.7535C13.4301 14.6776 13.4854 14.5988 13.5809 14.5087C13.682 14.4132 13.7463 14.362 13.8157 14.3265C13.9081 14.2792 14.0096 14.2539 14.1131 14.2467Z" fill="var(--fill-0, white)"/>
</g>
</svg>
