<svg preserveAspectRatio="none" width="100%" height="100%" overflow="visible" style="display: block;" viewBox="0 0 35 35" fill="none" xmlns="http://www.w3.org/2000/svg">
<g id="Group 32">
<circle id="Ellipse 41" cx="17.5" cy="17.5" r="17" stroke="var(--stroke-0, white)"/>
<path id="Vector" d="M18 15.6C16.6741 15.6 15.6 16.6745 15.6 18C15.6 19.3258 16.6745 20.4 18 20.4C19.3258 20.4 20.4 19.3255 20.4 18C20.4 16.6742 19.3255 15.6 18 15.6ZM18 14C20.2083 14 22 15.7897 22 18C22 20.2084 20.2103 22 18 22C15.7916 22 14 20.2103 14 18C14 15.7916 15.7897 14 18 14ZM23.2 13.7993C23.2 14.3514 22.7514 14.7993 22.2 14.7993C21.6479 14.7993 21.2 14.3507 21.2 13.7993C21.2 13.2479 21.6486 12.8 22.2 12.8C22.7506 12.7993 23.2 13.2479 23.2 13.7993ZM18 11.6C16.0204 11.6 15.6978 11.6052 14.777 11.6462C14.1497 11.6757 13.7292 11.7601 13.3385 11.9117C12.9913 12.0464 12.7409 12.2072 12.474 12.474C12.2062 12.7419 12.0456 12.9917 11.9115 13.3391C11.7595 13.7307 11.6752 14.1505 11.6462 14.7769C11.6048 15.6602 11.6 15.9688 11.6 18C11.6 19.9796 11.6052 20.3022 11.6462 21.2229C11.6757 21.8499 11.7602 22.271 11.9115 22.6608C12.0465 23.0085 12.2076 23.2595 12.4732 23.5251C12.7421 23.7937 12.9926 23.9547 13.3367 24.0875C13.7322 24.2404 14.1524 24.3249 14.7769 24.3538C15.6602 24.3951 15.9688 24.4 18 24.4C19.9796 24.4 20.3022 24.3947 21.2229 24.3538C21.8486 24.3244 22.27 24.2397 22.6608 24.0885C23.0075 23.9538 23.2594 23.7922 23.5251 23.5268C23.7941 23.2574 23.9548 23.0075 24.0878 22.6626C24.2402 22.2686 24.3249 21.8478 24.3538 21.2231C24.3951 20.3398 24.4 20.0311 24.4 18C24.4 16.0204 24.3947 15.6978 24.3538 14.7771C24.3243 14.1512 24.2396 13.7292 24.0882 13.3385C23.9539 12.9923 23.7926 12.7411 23.5259 12.474C23.2576 12.2057 23.0085 12.0455 22.6609 11.9115C22.2696 11.7596 21.8491 11.6752 21.223 11.6462C20.3398 11.6048 20.0311 11.6 18 11.6ZM18 10C20.1733 10 20.4446 10.008 21.298 10.048C22.1493 10.0873 22.73 10.222 23.24 10.42C23.7673 10.6233 24.2126 10.898 24.6573 11.3427C25.1013 11.7873 25.376 12.234 25.58 12.76C25.7773 13.2693 25.912 13.8507 25.952 14.702C25.99 15.5553 26 15.8267 26 18C26 20.1734 25.992 20.4446 25.952 21.298C25.9126 22.1494 25.7773 22.73 25.58 23.24C25.3766 23.7674 25.1013 24.2126 24.6573 24.6574C24.2126 25.1014 23.7653 25.376 23.24 25.58C22.73 25.7774 22.1493 25.912 21.298 25.952C20.4446 25.99 20.1733 26 18 26C15.8267 26 15.5553 25.992 14.702 25.952C13.8507 25.9126 13.2707 25.7774 12.76 25.58C12.2333 25.3766 11.7873 25.1014 11.3427 24.6574C10.898 24.2126 10.624 23.7654 10.42 23.24C10.222 22.73 10.088 22.1494 10.048 21.298C10.01 20.4446 10 20.1734 10 18C10 15.8267 10.008 15.5553 10.048 14.702C10.0873 13.85 10.222 13.27 10.42 12.76C10.6233 12.2333 10.898 11.7873 11.3427 11.3427C11.7873 10.898 12.234 10.624 12.76 10.42C13.27 10.222 13.85 10.088 14.702 10.048C15.5553 10.01 15.8267 10 18 10Z" fill="var(--fill-0, white)"/>
</g>
</svg>
