<svg preserveAspectRatio="none" width="100%" height="100%" overflow="visible" style="display: block;" viewBox="0 0 32 32" fill="none" xmlns="http://www.w3.org/2000/svg">
<g id="Group 47">
<circle id="Ellipse 44" cx="16" cy="16" r="15.5" fill="var(--fill-0, white)" stroke="var(--stroke-0, #D97706)"/>
<path id="Vector" d="M19.5996 9.5C21.7172 9.5 23.5 11.2657 23.5 13.8652C23.4999 16.5121 22.1032 18.6197 20.4043 20.2432C18.8377 21.7402 17.0658 22.7787 16 23.417C14.9342 22.7787 13.1623 21.7402 11.5957 20.2432C9.89684 18.6197 8.50013 16.5121 8.5 13.8652C8.5 11.268 10.3108 9.5 12.4004 9.5C13.7119 9.50014 14.9038 10.2219 15.6445 10.9727L16 11.334L16.3555 10.9727C17.0962 10.2219 18.2881 9.50014 19.5996 9.5ZM19.5996 10.1221C18.5741 10.1222 17.5209 10.6614 16.7754 11.417L16 12.2021L15.2246 11.417C14.4791 10.6614 13.4259 10.1222 12.4004 10.1221C10.5146 10.1221 9.09961 11.7495 9.09961 13.8652C9.09975 16.4628 10.5575 18.6911 13.002 20.6621C13.6149 21.1563 14.2661 21.6153 14.9834 22.0732C15.2263 22.2284 15.4675 22.3774 15.7412 22.543L16 22.6992L16.2588 22.543C16.5325 22.3774 16.7737 22.2284 17.0166 22.0732C17.7339 21.6153 18.3851 21.1563 18.998 20.6621C21.4424 18.6911 22.9003 16.4628 22.9004 13.8652C22.9004 11.7376 21.5038 10.1221 19.5996 10.1221Z" fill="var(--fill-0, #B4B9C9)" stroke="var(--stroke-0, #D97706)"/>
</g>
</svg>
