<svg preserveAspectRatio="none" width="100%" height="100%" overflow="visible" style="display: block;" viewBox="0 0 10 13" fill="none" xmlns="http://www.w3.org/2000/svg">
<path id="Vector" d="M0 13C0 10.2649 2.23857 8.04762 5 8.04762C7.76144 8.04762 10 10.2649 10 13H8.75C8.75 10.9487 7.07106 9.28571 5 9.28571C2.92893 9.28571 1.25 10.9487 1.25 13H0ZM5 7.42857C2.92812 7.42857 1.25 5.76643 1.25 3.71429C1.25 1.66214 2.92812 0 5 0C7.07188 0 8.75 1.66214 8.75 3.71429C8.75 5.76643 7.07188 7.42857 5 7.42857ZM5 6.19048C6.38125 6.19048 7.5 5.08238 7.5 3.71429C7.5 2.34619 6.38125 1.2381 5 1.2381C3.61875 1.2381 2.5 2.34619 2.5 3.71429C2.5 5.08238 3.61875 6.19048 5 6.19048Z" fill="var(--fill-0, white)"/>
</svg>
