<svg preserveAspectRatio="none" width="100%" height="100%" overflow="visible" style="display: block;" viewBox="0 0 19 18" fill="none" xmlns="http://www.w3.org/2000/svg">
<g id="heart">
<g id="Vector">
<path d="M13.775 0C16.6607 0 19 2.43243 19 5.83784C19 12.6486 11.875 16.5405 9.5 18C7.125 16.5405 0 12.6486 0 5.83784C0 2.43243 2.375 0 5.225 0C6.99197 0 8.55 0.972973 9.5 1.94595C10.45 0.972973 12.008 0 13.775 0ZM10.3872 15.1821C11.2247 14.6418 11.9795 14.1037 12.6872 13.5271C15.517 11.2213 17.1 8.70178 17.1 5.83784C17.1 3.54236 15.6398 1.94595 13.775 1.94595C12.7529 1.94595 11.6463 2.49967 10.8435 3.32193L9.5 4.69793L8.15651 3.32193C7.35365 2.49967 6.2471 1.94595 5.225 1.94595C3.38111 1.94595 1.9 3.55768 1.9 5.83784C1.9 8.70178 3.48296 11.2213 6.31288 13.5271C7.0205 14.1037 7.77527 14.6418 8.6128 15.1821C8.89637 15.3651 9.17804 15.5412 9.5 15.738C9.82195 15.5412 10.1036 15.3651 10.3872 15.1821Z" fill="#19213D"/>
<path d="M13.775 0C16.6607 0 19 2.43243 19 5.83784C19 12.6486 11.875 16.5405 9.5 18C7.125 16.5405 0 12.6486 0 5.83784C0 2.43243 2.375 0 5.225 0C6.99197 0 8.55 0.972973 9.5 1.94595C10.45 0.972973 12.008 0 13.775 0ZM10.3872 15.1821C11.2247 14.6418 11.9795 14.1037 12.6872 13.5271C15.517 11.2213 17.1 8.70178 17.1 5.83784C17.1 3.54236 15.6398 1.94595 13.775 1.94595C12.7529 1.94595 11.6463 2.49967 10.8435 3.32193L9.5 4.69793L8.15651 3.32193C7.35365 2.49967 6.2471 1.94595 5.225 1.94595C3.38111 1.94595 1.9 3.55768 1.9 5.83784C1.9 8.70178 3.48296 11.2213 6.31288 13.5271C7.0205 14.1037 7.77527 14.6418 8.6128 15.1821C8.89637 15.3651 9.17804 15.5412 9.5 15.738C9.82195 15.5412 10.1036 15.3651 10.3872 15.1821Z" fill="black" fill-opacity="0.2"/>
</g>
</g>
</svg>
