<svg preserveAspectRatio="none" width="100%" height="100%" overflow="visible" style="display: block;" viewBox="0 0 20 21" fill="none" xmlns="http://www.w3.org/2000/svg">
<g id="cart">
<path id="Vector" d="M6.66667 13.4851L13.9334 12.8747C16.2072 12.6837 16.7176 12.1831 16.9696 9.89738L17.5 5.08512" stroke="var(--stroke-0, #222222)" stroke-width="1.5" stroke-linecap="round"/>
<path id="Vector_2" d="M5 5.08512H18.3333" stroke="var(--stroke-0, #222222)" stroke-width="1.5" stroke-linecap="round"/>
<path id="Vector_3" d="M5 18.5251C5.92047 18.5251 6.66667 17.773 6.66667 16.8451C6.66667 15.9172 5.92047 15.1651 5 15.1651C4.07952 15.1651 3.33333 15.9172 3.33333 16.8451C3.33333 17.773 4.07952 18.5251 5 18.5251Z" stroke="var(--stroke-0, #222222)" stroke-width="1.5"/>
<path id="Vector_4" d="M14.1667 18.5251C15.0872 18.5251 15.8333 17.773 15.8333 16.8451C15.8333 15.9172 15.0872 15.1651 14.1667 15.1651C13.2462 15.1651 12.5 15.9172 12.5 16.8451C12.5 17.773 13.2462 18.5251 14.1667 18.5251Z" stroke="var(--stroke-0, #222222)" stroke-width="1.5"/>
<path id="Vector_5" d="M6.66667 16.8451H12.5" stroke="var(--stroke-0, #222222)" stroke-width="1.5" stroke-linecap="round"/>
<path id="Vector_6" d="M1.66667 1.68H2.47167C3.2589 1.68 3.94512 2.20466 4.13605 2.95254L6.61543 12.6643C6.74072 13.1551 6.6335 13.6749 6.32353 14.0797L5.52677 15.12" stroke="var(--stroke-0, #222222)" stroke-width="1.5" stroke-linecap="round"/>
</g>
</svg>
