<svg preserveAspectRatio="none" width="100%" height="100%" overflow="visible" style="display: block;" viewBox="0 0 172.8 15" fill="none" xmlns="http://www.w3.org/2000/svg">
<g id="Frame 39556">
<path id="Vector" d="M8.00004 12.2719L3.05574 15L4.16001 9.52168L0 5.72949L5.62676 5.07186L8.00004 0L10.3733 5.07186L16 5.72949L11.8401 9.52168L12.9443 15L8.00004 12.2719Z" fill="var(--fill-0, #F37335)"/>
<path id="Vector_2" d="M32 12.2719L27.0557 15L28.16 9.52168L24 5.72949L29.6268 5.07186L32 0L34.3733 5.07186L40 5.72949L35.8401 9.52168L36.9443 15L32 12.2719Z" fill="var(--fill-0, #F37335)"/>
<path id="Vector_3" d="M56 12.2719L51.0557 15L52.16 9.52168L48 5.72949L53.6268 5.07186L56 0L58.3733 5.07186L64 5.72949L59.8401 9.52168L60.9443 15L56 12.2719Z" fill="var(--fill-0, #F37335)"/>
<path id="Vector_4" d="M80 12.2719L75.0557 15L76.16 9.52168L72 5.72949L77.6268 5.07186L80 0L82.3733 5.07186L88 5.72949L83.8401 9.52168L84.9443 15L80 12.2719Z" fill="var(--fill-0, #F37335)"/>
<path id="Vector_5" d="M104 12.2719L99.0557 15L100.16 9.52168L96 5.72949L101.627 5.07186L104 0L106.373 5.07186L112 5.72949L107.84 9.52168L108.944 15L104 12.2719Z" fill="var(--fill-0, #F37335)"/>
</g>
</svg>
