<svg preserveAspectRatio="none" width="100%" height="100%" overflow="visible" style="display: block;" viewBox="0 0 30.03 16" fill="none" xmlns="http://www.w3.org/2000/svg">
<g id="sign11-1 1" clip-path="url(#clip0_0_4)">
<path id="Vector" fill-rule="evenodd" clip-rule="evenodd" d="M25.006 6.603C24.084 7.514 22.473 7.514 21.55 6.603L17.782 2.882L13.972 6.603C13.05 7.514 11.437 7.513 10.516 6.603L6.749 2.882L2.064 7.466C1.836 7.692 1.533 7.816 1.21 7.816C0.888 7.816 0.585 7.692 0.357 7.466C-0.113 7.002 -0.113 6.246 0.357 5.781L4.999 1.196C5.92 0.285 7.532 0.284 8.455 1.196L12.222 4.917L16.033 1.196C16.954 0.285 18.566 0.285 19.489 1.196L23.257 4.917L27.941 0.333C28.397 -0.118 29.193 -0.118 29.648 0.333C30.118 0.797 30.118 1.553 29.648 2.018L25.006 6.603ZM4.999 9.37C5.95 8.429 7.501 8.428 8.455 9.37L12.222 13.091L16.033 9.37C16.954 8.459 18.566 8.459 19.489 9.37L23.257 13.091L27.941 8.506C28.397 8.055 29.193 8.055 29.648 8.506C30.118 8.971 30.118 9.728 29.648 10.192L25.006 14.776C24.084 15.687 22.473 15.687 21.55 14.776L17.782 11.055L13.972 14.776C13.05 15.687 11.437 15.687 10.516 14.776L6.749 11.055L2.064 15.64C1.836 15.865 1.533 15.989 1.21 15.989C0.887 15.989 0.584 15.865 0.357 15.639C0.129 15.416 0.003 15.116 0.003 14.797C0.003 14.479 0.129 14.179 0.357 13.955L4.999 9.37Z" fill="var(--fill-0, black)"/>
</g>
<defs>
<clipPath id="clip0_0_4">
<rect width="30.03" height="16" fill="white"/>
</clipPath>
</defs>
</svg>
