<svg preserveAspectRatio="none" width="100%" height="100%" overflow="visible" style="display: block;" viewBox="0 0 30 28" fill="none" xmlns="http://www.w3.org/2000/svg">
<g id="sign1-1 1" clip-path="url(#clip0_0_4)">
<path id="Vector" fill-rule="evenodd" clip-rule="evenodd" d="M21.818 -0.001C18.974 -0.001 16.467 1.499 15 3.766C13.533 1.499 11.026 -0.001 8.182 -0.001C3.67 -0.001 0 3.767 0 8.399C0 9.171 0.611 9.799 1.364 9.799C2.116 9.799 2.727 9.171 2.727 8.399C2.727 5.312 5.174 2.799 8.182 2.799C11.189 2.799 13.636 5.312 13.636 8.399V26.599C13.636 27.37 14.248 27.999 15 27.999C15.752 27.999 16.364 27.37 16.364 26.599V8.399C16.364 5.312 18.811 2.799 21.818 2.799C24.826 2.799 27.273 5.312 27.273 8.399C27.273 9.171 27.885 9.799 28.636 9.799C29.388 9.799 30 9.171 30 8.399C30 3.767 26.33 -0.001 21.818 -0.001Z" fill="var(--fill-0, black)"/>
</g>
<defs>
<clipPath id="clip0_0_4">
<rect width="30" height="28" fill="white"/>
</clipPath>
</defs>
</svg>
