<svg preserveAspectRatio="none" width="100%" height="100%" overflow="visible" style="display: block;" viewBox="0 0 30 24" fill="none" xmlns="http://www.w3.org/2000/svg">
<g id="sign4-1 1" clip-path="url(#clip0_0_4)">
<path id="Vector" fill-rule="evenodd" clip-rule="evenodd" d="M29.999 8.57102C29.999 12.351 26.923 15.427 23.142 15.427C19.362 15.427 16.286 12.351 16.286 8.57102C16.286 6.13602 17.564 4.00002 19.482 2.78302C18.591 2.64902 17.664 2.57102 16.714 2.57102C9.88501 2.57102 3.42901 4.86202 3.42901 7.28502C3.42901 7.99402 2.85201 8.57102 2.14301 8.57102C1.43401 8.57102 0.858007 7.99402 0.858007 7.28502C0.858007 1.97802 10.584 -0.000976562 16.714 -0.000976562C20.659 -0.000976562 24.14 1.00802 26.552 2.63002C27.488 3.16902 28.285 3.92102 28.876 4.82102C29.595 5.83102 29.999 6.95202 29.999 8.14202C29.999 8.19102 29.99 8.23702 29.985 8.28502C29.989 8.38002 29.999 8.47402 29.999 8.57102ZM26.762 6.29902C26.376 5.76502 25.835 5.26702 25.165 4.81602C24.56 4.48802 23.878 4.28502 23.142 4.28502C20.779 4.28502 18.857 6.20702 18.857 8.57102C18.857 10.933 20.779 12.856 23.142 12.856C25.505 12.856 27.428 10.933 27.428 8.57102C27.428 7.73402 27.178 6.96002 26.762 6.29902ZM6.85701 8.57102C10.638 8.57102 13.714 11.646 13.714 15.427C13.714 17.862 12.435 19.998 10.518 21.215C11.409 21.349 12.336 21.427 13.286 21.427C19.99 21.427 26.571 19.092 26.571 16.713C26.571 16.004 27.148 15.427 27.856 15.427C28.565 15.427 29.142 16.004 29.142 16.713C29.142 22.021 19.416 23.998 13.286 23.998C9.34101 23.998 5.86001 22.989 3.44701 21.367C2.51201 20.829 1.71501 20.077 1.12401 19.177C0.405007 18.167 0.00100708 17.046 0.00100708 15.856C0.00100708 15.807 0.0100071 15.761 0.0150071 15.713C0.0110071 15.618 0.00100708 15.524 0.00100708 15.427C0.00100708 11.646 3.07701 8.57102 6.85701 8.57102ZM3.23801 17.699C3.62401 18.232 4.16501 18.731 4.83401 19.182C5.43901 19.509 6.12201 19.713 6.85701 19.713C9.22001 19.713 11.143 17.79 11.143 15.427C11.143 13.065 9.22001 11.142 6.85701 11.142C4.49501 11.142 2.57201 13.065 2.57201 15.427C2.57201 16.264 2.82201 17.039 3.23801 17.699Z" fill="var(--fill-0, black)"/>
</g>
<defs>
<clipPath id="clip0_0_4">
<rect width="30" height="24" fill="white"/>
</clipPath>
</defs>
</svg>
