<svg preserveAspectRatio="none" width="100%" height="100%" overflow="visible" style="display: block;" viewBox="0 0 30 22" fill="none" xmlns="http://www.w3.org/2000/svg">
<g id="sign8-1 1" clip-path="url(#clip0_0_4)">
<path id="Vector" fill-rule="evenodd" clip-rule="evenodd" d="M27.456 15.232C27.253 14.974 26.958 14.806 26.624 14.76C26.289 14.715 25.958 14.797 25.692 14.989C25.422 15.184 25.247 15.467 25.2 15.787C25.19 15.854 25.189 15.921 25.191 15.987C25.191 15.976 25.188 15.967 25.188 15.956V4.471C25.188 1.927 23.067 0.008 20.253 0.008C18.708 0.008 17.347 0.574 16.411 1.481C15.521 0.569 14.21 0.008 12.694 0.008C11.149 0.008 9.788 0.574 8.852 1.481C7.962 0.569 6.651 0.008 5.135 0.008C2.25 0.008 -0.01 1.968 -0.01 4.471C-0.01 5.139 0.555 5.681 1.25 5.681C1.945 5.681 2.51 5.139 2.51 4.471C2.51 3.191 3.845 2.426 5.135 2.426C6.557 2.426 7.55 3.268 7.55 4.471V15.956C7.55 16.623 8.115 17.166 8.809 17.166C9.504 17.166 10.069 16.623 10.069 15.956V4.471C10.069 3.191 11.404 2.426 12.694 2.426C14.116 2.426 15.109 3.268 15.109 4.471V15.956C15.109 16.623 15.674 17.166 16.369 17.166C17.063 17.166 17.629 16.623 17.629 15.956V4.471C17.629 3.191 18.963 2.426 20.253 2.426C21.675 2.426 22.668 3.268 22.668 4.471V15.956C22.668 17.62 23.843 19.022 25.437 19.448L24.927 19.938C24.435 20.408 24.435 21.176 24.927 21.646C25.165 21.875 25.481 22.001 25.818 22.001C26.154 22.001 26.47 21.875 26.709 21.646L30.001 18.487L27.456 15.232Z" fill="var(--fill-0, black)"/>
</g>
<defs>
<clipPath id="clip0_0_4">
<rect width="30" height="22" fill="white"/>
</clipPath>
</defs>
</svg>
