<svg preserveAspectRatio="none" width="100%" height="100%" overflow="visible" style="display: block;" viewBox="0 0 30 28" fill="none" xmlns="http://www.w3.org/2000/svg">
<g id="sign5-1 1" clip-path="url(#clip0_0_4)">
<path id="Vector" fill-rule="evenodd" clip-rule="evenodd" d="M28.725 18.955C28.026 18.955 27.457 19.535 27.457 20.248C27.457 23.098 25.182 25.417 22.39 25.417H22.302C20.812 25.392 19.548 24.537 18.921 23.129C18.261 21.648 18.487 19.962 19.511 18.729C20.79 17.185 21.916 15.295 22.857 13.109C24.07 10.291 23.869 7.02798 22.319 4.38098C20.838 1.85098 18.367 0.265977 15.538 0.0309766C15.287 0.0109766 15.035 0.000976562 14.779 0.000976562C9.47901 0.000976562 5.48201 3.88898 5.48201 9.04698V13.912C2.35901 14.519 -0.0109863 17.32 -0.0109863 20.679C-0.0109863 24.48 3.02201 27.572 6.75001 27.572C10.478 27.572 13.511 24.48 13.511 20.679C13.511 17.32 11.142 14.519 8.01801 13.912V9.04698C8.01801 5.36298 10.925 2.58498 14.779 2.58498C14.967 2.58498 15.154 2.59298 15.335 2.60798C17.334 2.77298 19.086 3.90198 20.142 5.70498C21.272 7.63398 21.418 10.014 20.534 12.07C19.691 14.029 18.696 15.708 17.574 17.06C15.911 19.065 15.543 21.8 16.612 24.199C17.639 26.504 19.801 27.961 22.258 28.002H22.386C26.58 28.002 29.992 24.524 29.992 20.248C29.992 19.535 29.424 18.955 28.725 18.955ZM6.75001 16.37C9.08001 16.37 10.976 18.303 10.976 20.679C10.976 23.055 9.08001 24.987 6.75001 24.987C4.42001 24.987 2.52401 23.055 2.52401 20.679C2.52401 18.303 4.42001 16.37 6.75001 16.37Z" fill="var(--fill-0, black)"/>
</g>
<defs>
<clipPath id="clip0_0_4">
<rect width="30" height="28" fill="white"/>
</clipPath>
</defs>
</svg>
