<svg preserveAspectRatio="none" width="100%" height="100%" overflow="visible" style="display: block;" viewBox="0 0 30 27" fill="none" xmlns="http://www.w3.org/2000/svg">
<g id="sign12 1" clip-path="url(#clip0_0_4)">
<path id="Vector" fill-rule="evenodd" clip-rule="evenodd" d="M28.61 24.185C23.24 24.185 18.801 20.139 18.111 14.916H23.009C23.781 14.916 24.409 14.283 24.409 13.505C24.409 12.727 23.781 12.094 23.009 12.094H18.111C18.8 6.871 23.24 2.824 28.61 2.824C29.382 2.824 30.01 2.193 30.01 1.415C30.01 0.637 29.382 0.004 28.61 0.004C21.692 0.004 15.984 5.311 15.282 12.094H14.733C14.031 5.311 8.322 0.004 1.405 0.004C0.633 0.004 0.005 0.637 0.005 1.415C0.005 2.193 0.633 2.824 1.405 2.824C6.776 2.824 11.215 6.871 11.904 12.094H7.006C6.234 12.094 5.606 12.727 5.606 13.505C5.606 14.283 6.234 14.916 7.006 14.916H11.904C11.215 20.139 6.776 24.185 1.405 24.185C0.633 24.185 0.005 24.818 0.005 25.596C0.005 26.373 0.633 27.006 1.405 27.006C8.322 27.006 14.031 21.699 14.733 14.916H15.282C15.984 21.699 21.692 27.006 28.61 27.006C29.382 27.006 30.01 26.373 30.01 25.596C30.01 24.818 29.382 24.185 28.61 24.185Z" fill="var(--fill-0, black)"/>
</g>
<defs>
<clipPath id="clip0_0_4">
<rect width="30" height="27" fill="white"/>
</clipPath>
</defs>
</svg>
