<svg preserveAspectRatio="none" width="100%" height="100%" overflow="visible" style="display: block;" viewBox="0 0 29.84 30" fill="none" xmlns="http://www.w3.org/2000/svg">
<g id="sign-1 1" clip-path="url(#clip0_0_4)">
<path id="Vector" fill-rule="evenodd" clip-rule="evenodd" d="M18.887 -0.001C17.981 -0.001 17.243 0.74 17.243 1.651C17.243 2.561 17.981 3.303 18.887 3.303H24.216L15.566 11.996L12.08 8.492C11.44 7.849 10.396 7.849 9.756 8.493C9.445 8.804 9.274 9.219 9.274 9.66C9.274 10.102 9.445 10.516 9.756 10.828L13.242 14.331L0.457 27.179C-0.183 27.823 -0.183 28.87 0.459 29.515C0.77 29.827 1.182 29.999 1.62 29.999C2.059 29.999 2.472 29.827 2.782 29.515L15.566 16.667L19.052 20.171C19.362 20.483 19.775 20.655 20.215 20.655C20.652 20.655 21.065 20.484 21.377 20.172C22.017 19.528 22.017 18.481 21.377 17.836L17.89 14.331L26.54 5.638V10.994C26.54 11.905 27.278 12.646 28.184 12.646C29.09 12.646 29.827 11.905 29.827 10.994V-0.001H18.887Z" fill="var(--fill-0, black)"/>
</g>
<defs>
<clipPath id="clip0_0_4">
<rect width="29.84" height="30" fill="white"/>
</clipPath>
</defs>
</svg>
