<svg preserveAspectRatio="none" width="100%" height="100%" overflow="visible" style="display: block;" viewBox="0 0 33.28 30" fill="none" xmlns="http://www.w3.org/2000/svg">
<g id="cap-1 1" clip-path="url(#clip0_0_4)">
<path id="Vector" fill-rule="evenodd" clip-rule="evenodd" d="M26.76 15.364C25.437 15.364 24.206 15.76 23.175 16.432V5.962C23.175 2.562 20.426 -0.002 16.78 -0.002C14.687 -0.002 12.848 0.819 11.633 2.125C10.479 0.81 8.712 -0.002 6.66 -0.002C2.916 -0.002 -0.016 2.618 -0.016 5.962C-0.016 6.768 0.646 7.425 1.46 7.425C2.273 7.425 2.935 6.768 2.935 5.962C2.935 4.06 4.829 2.924 6.66 2.924C8.688 2.924 10.104 4.173 10.104 5.962V21.842C10.104 22.649 10.766 23.305 11.58 23.305C12.393 23.305 13.055 22.649 13.055 21.842V5.962C13.055 4.06 14.949 2.924 16.78 2.924C18.808 2.924 20.224 4.173 20.224 5.962V21.842C20.224 23.793 19.32 27.067 13.266 27.067C12.453 27.067 11.79 27.722 11.79 28.53C11.79 29.335 12.453 29.993 13.266 29.993C17.801 29.993 20.521 28.369 21.935 26.197C23.131 27.498 24.848 28.32 26.76 28.32C30.364 28.32 33.296 25.414 33.296 21.842C33.296 18.271 30.364 15.364 26.76 15.364ZM26.76 25.394C24.784 25.394 23.175 23.801 23.175 21.842C23.175 19.884 24.784 18.291 26.76 18.291C28.736 18.291 30.344 19.884 30.344 21.842C30.344 23.801 28.736 25.394 26.76 25.394Z" fill="var(--fill-0, black)"/>
</g>
<defs>
<clipPath id="clip0_0_4">
<rect width="33.28" height="30" fill="white"/>
</clipPath>
</defs>
</svg>
