<svg preserveAspectRatio="none" width="100%" height="100%" overflow="visible" style="display: block;" viewBox="0 0 29.031 30" fill="none" xmlns="http://www.w3.org/2000/svg">
<g id="sign2-1 1" clip-path="url(#clip0_0_4)">
<path id="Vector" fill-rule="evenodd" clip-rule="evenodd" d="M28.957 1.202C28.843 0.779 28.571 0.427 28.192 0.212C27.818 -0.00200001 27.383 -0.055 26.979 0.061L25.235 0.535C24.789 0.657 24.202 0.802 23.624 0.844C21.186 1.016 18.887 1.991 17.151 3.589C17.02 3.709 16.9 3.825 16.79 3.935C15.638 5.093 14.868 5.679 14.501 5.679C13.947 5.679 12.616 4.342 12.176 3.901C10.397 2.127 7.996 1.043 5.415 0.848C4.8 0.802 4.162 0.645 3.62 0.498L2.025 0.064C1.611 -0.051 1.176 0.00399999 0.802 0.218C0.428 0.433 0.159 0.782 0.045 1.204C-0.186 2.065 0.322 2.957 1.179 3.192L2.777 3.627C3.467 3.815 4.291 4.017 5.174 4.081C6.991 4.217 8.681 4.981 9.931 6.228C10.023 6.319 10.109 6.401 10.198 6.49C5.651 8.238 2.408 12.66 2.408 17.839C2.408 24.545 7.833 29.999 14.501 29.999C21.169 29.999 26.594 24.545 26.594 17.839C26.594 12.66 23.351 8.238 18.804 6.49C18.894 6.401 18.98 6.319 19.072 6.227C19.15 6.148 19.236 6.066 19.329 5.981C20.529 4.876 22.135 4.2 23.85 4.078C24.705 4.018 25.49 3.825 26.078 3.665L27.822 3.191C28.68 2.958 29.189 2.066 28.957 1.202ZM14.501 26.757C9.611 26.757 5.633 22.756 5.633 17.839C5.633 12.922 9.611 8.922 14.501 8.922C19.391 8.922 23.369 12.922 23.369 17.839C23.369 22.756 19.391 26.757 14.501 26.757Z" fill="var(--fill-0, black)"/>
</g>
<defs>
<clipPath id="clip0_0_4">
<rect width="29.031" height="30" fill="white"/>
</clipPath>
</defs>
</svg>
