<svg preserveAspectRatio="none" width="100%" height="100%" overflow="visible" style="display: block;" viewBox="0 0 30 19" fill="none" xmlns="http://www.w3.org/2000/svg">
<g id="virgo-1 1" clip-path="url(#clip0_0_4)">
<path id="Vector" fill-rule="evenodd" clip-rule="evenodd" d="M29.811 6.843C29.498 5.352 28.557 4.09 27.23 3.381C26.165 2.813 25.12 2.7 24.123 3.044C23.946 3.105 23.781 3.182 23.622 3.265C23.135 1.348 21.359 0.004 19.107 0.004C17.65 0.004 16.366 0.552 15.484 1.432C14.644 0.548 13.408 0.004 11.979 0.004C10.522 0.004 9.238 0.552 8.356 1.432C7.516 0.548 6.28 0.004 4.85 0.004C2.13 0.004 -0.001 1.906 -0.001 4.335C-0.001 4.982 0.532 5.508 1.187 5.508C1.842 5.508 2.375 4.982 2.375 4.335C2.375 3.092 3.634 2.349 4.85 2.349C6.191 2.349 7.127 3.166 7.127 4.335V15.479C7.127 16.126 7.66 16.652 8.315 16.652C8.97 16.652 9.503 16.126 9.503 15.479V4.335C9.503 3.092 10.762 2.349 11.979 2.349C13.319 2.349 14.255 3.166 14.255 4.335V15.479C14.255 16.126 14.788 16.652 15.443 16.652C16.099 16.652 16.631 16.126 16.631 15.479V4.335C16.631 3.092 17.89 2.349 19.107 2.349C20.447 2.349 21.383 3.166 21.383 4.335V6.088V6.091V15.14C20.523 15.66 19.554 16.208 18.448 16.791C18.168 16.937 17.963 17.184 17.871 17.484C17.778 17.783 17.81 18.101 17.959 18.378C18.167 18.761 18.569 18.998 19.008 18.998C19.199 18.998 19.391 18.951 19.567 18.861C20.461 18.39 21.276 17.935 22.029 17.493C22.674 18.402 23.741 18.998 24.947 18.998C25.603 18.998 26.135 18.472 26.135 17.825C26.135 17.179 25.603 16.652 24.947 16.652C24.585 16.652 24.264 16.488 24.046 16.234C30.226 12.115 30.316 9.25 29.811 6.843ZM23.759 6.375C23.961 6.019 24.379 5.442 24.909 5.259C25.128 5.183 25.49 5.12 26.101 5.446C26.799 5.819 27.316 6.519 27.484 7.319C27.741 8.542 28.126 10.401 23.759 13.576V6.375Z" fill="var(--fill-0, black)"/>
</g>
<defs>
<clipPath id="clip0_0_4">
<rect width="30" height="19" fill="white"/>
</clipPath>
</defs>
</svg>
